<svg width="25" height="25" viewBox="0 0 25 25" fill="none" xmlns="http://www.w3.org/2000/svg">
<path d="M7.03125 18.75V21.0937" stroke="#822E27" stroke-width="2" stroke-linecap="round" stroke-linejoin="round"/>
<path d="M17.9688 18.75V21.0937" stroke="#822E27" stroke-width="2" stroke-linecap="round" stroke-linejoin="round"/>
<path d="M5.4668 10.1563V5.07813C5.4668 4.56012 5.67257 4.06334 6.03885 3.69706C6.40514 3.33078 6.90192 3.125 7.41992 3.125C7.93792 3.125 8.43471 3.33078 8.80099 3.69706C9.16727 4.06334 9.37305 4.56012 9.37305 5.07813" stroke="#822E27" stroke-width="2" stroke-linecap="round" stroke-linejoin="round"/>
<path d="M19.5313 9.375H13.2812V14.0625H19.5313V9.375Z" stroke="#822E27" stroke-width="2" stroke-linecap="round" stroke-linejoin="round"/>
<path d="M19.5312 10.1562H22.6562C22.8635 10.1562 23.0622 10.2386 23.2087 10.3851C23.3552 10.5316 23.4375 10.7303 23.4375 10.9375V14.0625C23.4375 15.3057 22.9436 16.498 22.0646 17.3771C21.1855 18.2561 19.9932 18.75 18.75 18.75H6.25C5.0068 18.75 3.81451 18.2561 2.93544 17.3771C2.05636 16.498 1.5625 15.3057 1.5625 14.0625V10.9375C1.5625 10.7303 1.64481 10.5316 1.79132 10.3851C1.93784 10.2386 2.13655 10.1562 2.34375 10.1562H13.2812" stroke="#822E27" stroke-width="2" stroke-linecap="round" stroke-linejoin="round"/>
</svg>
