<svg width="26" height="24" viewBox="0 0 26 24" fill="none" xmlns="http://www.w3.org/2000/svg">
<path d="M22.7368 8.28253V0H20.2105V2.52632H5.05263V0H2.52632V8.28253C1.02316 9.1579 0 10.7684 0 12.6316V17.6842C0 18.0192 0.133082 18.3405 0.36997 18.5774C0.606858 18.8143 0.928148 18.9474 1.26316 18.9474H2.52632V24H5.05263V18.9474H20.2105V24H22.7368V18.9474H24C24.335 18.9474 24.6563 18.8143 24.8932 18.5774C25.1301 18.3405 25.2632 18.0192 25.2632 17.6842V12.6316C25.2632 10.7684 24.2387 9.1579 22.7368 8.28253ZM20.2105 5.05263V7.57895H13.8947V5.05263H20.2105ZM5.05263 5.05263H11.3684V7.57895H5.05263V5.05263ZM22.7368 16.4211H2.52632V12.6316C2.52632 11.2383 3.65937 10.1053 5.05263 10.1053H20.2105C21.6038 10.1053 22.7368 11.2383 22.7368 12.6316V16.4211Z" fill="#822E27"/>
</svg>
