<svg width="24" height="24" viewBox="0 0 24 24" fill="none" xmlns="http://www.w3.org/2000/svg">
<path d="M24 4.5C24 3.87868 23.4963 3.375 22.875 3.375H1.125C0.50368 3.375 0 3.87868 0 4.5C0 5.12132 0.50368 5.625 1.125 5.625H22.875C23.4963 5.625 24 5.12132 24 4.5Z" fill="#822E27"/>
<path d="M24 12C24 11.3787 23.4963 10.875 22.875 10.875H1.125C0.50368 10.875 0 11.3787 0 12C0 12.6213 0.50368 13.125 1.125 13.125H22.875C23.4963 13.125 24 12.6213 24 12Z" fill="#822E27"/>
<path d="M22.875 18.375C23.4963 18.375 24 18.8787 24 19.5C24 20.1213 23.4963 20.625 22.875 20.625H1.125C0.50368 20.625 0 20.1213 0 19.5C0 18.8787 0.50368 18.375 1.125 18.375H22.875Z" fill="#822E27"/>
</svg>
