<svg width="40" height="40" viewBox="0 0 40 40" fill="none" xmlns="http://www.w3.org/2000/svg">
<path d="M0.398135 5.49577C-0.602605 8.5014 -0.602618 16.5164 11.4062 28.5389C23.415 40.5614 31.1119 40.6645 34.4231 39.5595C36.1995 38.9668 38.0859 36.4151 39.4531 34.1768C40.6537 32.2114 39.788 29.7216 37.7298 28.6913L30.8092 25.2271C29.9436 24.7938 28.9169 24.8333 28.0871 25.3317L24.7145 27.3576C24.5161 27.4768 24.3108 27.6161 24.0803 27.5957C23.4408 27.5392 21.706 26.8279 17.4106 22.5276C13.1154 18.2275 12.4048 16.4908 12.3484 15.8505C12.328 15.6197 12.4672 15.4141 12.5862 15.2154L14.6097 11.839C15.1076 11.0082 15.1471 9.98037 14.7143 9.1138L11.3035 2.2845C10.2549 0.184792 7.70003 -0.667852 5.71518 0.582092C3.46972 1.99616 0.933079 3.8891 0.398135 5.49577Z" fill="#822E27"/>
</svg>
