<svg width="40" height="40" viewBox="0 0 40 40" fill="none" xmlns="http://www.w3.org/2000/svg">
<path d="M25.9892 29.2845C18.1303 29.2845 11.7365 22.6719 11.7344 14.5469C11.7365 12.4873 13.3587 10.8125 15.3465 10.8125C15.5509 10.8125 15.7531 10.8303 15.9467 10.8659C16.3727 10.9393 16.7771 11.0883 17.1493 11.3129C17.2031 11.3463 17.2397 11.3997 17.2483 11.4619L18.0787 16.8734C18.0895 16.9357 18.0701 17.0002 18.0292 17.0469C17.571 17.5718 16.9858 17.9499 16.334 18.139L16.0199 18.2302L16.1382 18.5438C17.2095 21.3641 19.391 23.6172 22.1211 24.7293L22.4244 24.8538L22.5126 24.5291C22.6955 23.8552 23.0612 23.2502 23.5689 22.7764C23.6055 22.7409 23.655 22.7231 23.7045 22.7231C23.7152 22.7231 23.726 22.7231 23.7389 22.7253L28.9731 23.5838C29.0355 23.5949 29.0871 23.6305 29.1194 23.6861C29.3346 24.0709 29.4787 24.4913 29.5518 24.9317C29.5863 25.1274 29.6013 25.3343 29.6013 25.55C29.6013 27.6074 27.9813 29.2822 25.9892 29.2845Z" fill="#822E27"/>
<path d="M39.9247 18.2162C39.5009 13.2651 37.3065 8.67215 33.746 5.2847C30.1641 1.87723 25.5171 0 20.6572 0C9.99086 0 1.31234 8.97242 1.31234 20C1.31234 23.7011 2.29979 27.3065 4.16931 30.4471L0 39.9889L13.3491 38.5187C15.6704 39.5018 18.1272 40 20.6551 40C21.3198 40 22.0018 39.9644 22.686 39.891C23.2883 39.8243 23.8972 39.7264 24.4953 39.6019C33.4276 37.7358 39.9484 29.5396 40 20.1068V20C40 19.3995 39.9742 18.7989 39.9226 18.2184L39.9247 18.2162ZM13.8633 34.3305L6.47773 35.1446L8.68286 30.0934L8.24182 29.4818C8.20955 29.4373 8.17729 29.3928 8.14071 29.3416C6.22602 26.6081 5.21486 23.3786 5.21486 20.0022C5.21486 11.1988 12.1422 4.03692 20.6572 4.03692C28.6344 4.03692 35.3961 10.4715 36.048 18.6855C36.0824 19.1259 36.1018 19.5685 36.1018 20.0045C36.1018 20.129 36.0996 20.2513 36.0975 20.3826C35.934 27.7469 30.9579 34.0013 23.9961 35.5938C23.4647 35.7162 22.9205 35.8096 22.3783 35.8696C21.8147 35.9364 21.236 35.9698 20.6615 35.9698C18.6156 35.9698 16.6278 35.5605 14.7496 34.7509C14.541 34.6641 14.3366 34.5707 14.1451 34.4751L13.8654 34.3349L13.8633 34.3305Z" fill="#822E27"/>
</svg>
